<mxfile host="app.diagrams.net" modified="2023-12-04T19:31:41.104Z" agent="Mozilla/5.0 (Windows NT 10.0; Win64; x64; rv:120.0) Gecko/20100101 Firefox/120.0" version="22.1.5" etag="GY8-wp52t_WVxIEf18im" type="github">
  <diagram name="Page-1" id="yY3VUaSum8yKjVh3n8H-">
    <mxGraphModel>
      <root>
        <mxCell id="0" />
        <mxCell id="1" parent="0" />
      </root>
    </mxGraphModel>
  </diagram>
</mxfile>
